<?xml version="1.0" encoding="UTF-8"?>
<!-- Generated by Pixelmator Pro 3.8 -->
<svg width="353" height="474" viewBox="0 0 353 474" xmlns="http://www.w3.org/2000/svg">
    <g id="g1">
        <path id="path1" fill="#000000" stroke="none" opacity="0" d="M 0 -0.716003 L 353.514008 -0.716003 L 353.514008 474 L 0 474 Z"/>
        <path id="path2" fill="#007aff" stroke="none" d="M 353.514008 204.723999 L 353.514008 361.929993 C 353.514008 415.196991 323.90799 445.199982 270.477997 445.199982 L 83.0355 445.199982 C 29.605801 445.199982 0 415.196991 0 361.929993 L 0 204.723999 C 0 151.339996 29.605801 121.734009 83.0355 121.734009 L 142.416 121.734009 L 142.416 135.061005 L 83.0355 135.061005 C 38.399502 135.061005 13.3727 160.088013 13.3727 204.723999 L 13.3727 361.929993 C 13.3727 406.729004 38.399502 431.826996 83.0355 431.826996 L 270.477997 431.826996 C 315.394012 431.826996 340.42099 406.729004 340.42099 361.929993 L 340.42099 204.723999 C 340.42099 160.088013 315.394012 135.061005 270.477997 135.061005 L 211.658005 135.061005 L 211.658005 121.734009 L 270.477997 121.734009 C 323.90799 121.734009 353.514008 151.339996 353.514008 204.723999 Z"/>
        <filter id="filter1" x="0" y="0" width="353" height="474" filterUnits="userSpaceOnUse" primitiveUnits="userSpaceOnUse" color-interpolation-filters="sRGB">
            <feFlood flood-color="#ffffff" flood-opacity="0.733121"/>
            <feComposite in2="SourceGraphic" operator="out"/>
            <feGaussianBlur stdDeviation="0"/>
            <feOffset dx="0" dy="4"/>
            <feComposite in2="SourceGraphic" operator="atop"/>
        </filter>
        <path id="path3" fill="#000000" fill-opacity="0.85" stroke="none" filter="url(#filter1)" d="M 177.037003 27.322693 C 173.445999 27.322693 170.453995 30.269104 170.453995 33.813904 L 170.453995 267.238007 L 171.046005 304.753998 C 171.020004 307.863007 173.764999 310.697998 177.037003 310.697998 C 180.145996 310.697998 183.007004 307.863007 182.981003 304.753998 L 183.455994 267.238007 L 183.455994 33.813904 C 183.455994 30.269104 180.580994 27.322693 177.037003 27.322693 Z M 105.070999 232.68399 C 101.806 232.68399 99.204102 235.473999 99.204102 238.647995 C 99.204102 240.442993 99.8936 241.731003 101.136002 242.927994 L 172.367004 314.009003 C 173.837006 315.31601 175.404007 316.031982 177.037003 316.031982 C 178.623993 316.031982 180.190994 315.31601 181.660995 314.009003 L 252.658005 242.927994 C 253.899994 241.731003 254.544006 240.442993 254.544006 238.647995 C 254.544006 235.473999 251.779999 232.68399 248.677002 232.68399 C 247.136002 232.68399 245.151993 233.561996 243.955002 234.804001 L 199.261002 279.998993 L 177.037003 302.632996 L 154.487 279.998993 L 109.837997 234.804001 C 108.525002 233.561996 106.612 232.68399 105.070999 232.68399 Z"/>
    </g>
</svg>
